<svg xmlns="http://www.w3.org/2000/svg" viewBox="0 0 48 48">
  <path fill="#EA4335" d="M24 9.5c3.14 0 5.97 1.08 8.2 2.85l6.1-6.1C34.4 2.6 29.6 0 24 0 14.6 0 6.4 5.38 2.6 13.18l7.1 5.52C11.4 13.1 17.2 9.5 24 9.5z"></path>
  <path fill="#4285F4" d="M46.1 24.5c0-1.6-.14-2.77-.44-3.98H24v7.54h12.7c-.26 2.1-1.66 5.27-4.77 7.4l7.34 5.7c4.3-3.96 6.83-9.8 6.83-16.66z"></path>
  <path fill="#FBBC05" d="M9.7 28.7a14.6 14.6 0 0 1-.78-4.7c0-1.63.28-3.2.75-4.7l-7.1-5.52C.96 17.3 0 20.5 0 24c0 3.5.96 6.7 2.57 9.62l7.13-4.92z"></path>
  <path fill="#34A853" d="M24 48c5.6 0 10.3-1.84 13.73-5l-7.34-5.7c-2 1.4-4.7 2.35-6.4 2.35-6.8 0-12.6-3.6-14.3-8.7l-7.13 4.92C6.4 42.62 14.6 48 24 48z"></path>
</svg>
